<svg width="128" height="128" viewBox="0 0 128 128" fill="none" xmlns="http://www.w3.org/2000/svg">
<path d="M69.3333 122.667C78.1065 122.667 85.3333 115.44 85.3333 106.667L106.667 106.667C112.496 106.667 117.333 101.83 117.333 96.0001L117.333 64.0001L106.667 64.0001C103.653 64.0001 101.333 61.6802 101.333 58.6667C101.333 55.6533 103.653 53.3334 106.667 53.3334L117.333 53.3334L117.333 21.3334C117.333 15.5037 112.496 10.6667 106.667 10.6667L74.6667 10.6667L74.6667 21.3334C74.6667 24.3469 72.3468 26.6667 69.3333 26.6667C66.3198 26.6667 64 24.3469 64 21.3334L64 10.6667L32 10.6667C26.1703 10.6667 21.3333 15.5037 21.3333 21.3334L21.3333 42.6667C12.5601 42.6667 5.33332 49.8936 5.33332 58.6667C5.33331 67.4399 12.5601 74.6667 21.3333 74.6667L21.3333 96.0001C21.3333 101.83 26.1703 106.667 32 106.667L53.3333 106.667C53.3333 115.44 60.5601 122.667 69.3333 122.667ZM69.3333 112C66.3198 112 64 109.68 64 106.667L64 96.0001L32 96.0001L32 64.0001L21.3333 64.0001C18.3198 64.0001 16 61.6802 16 58.6667C16 55.6532 18.3198 53.3334 21.3333 53.3334L32 53.3334L32 21.3334L53.3333 21.3334C53.3333 30.1066 60.5601 37.3334 69.3333 37.3334C78.1065 37.3334 85.3333 30.1066 85.3333 21.3334L106.667 21.3334L106.667 42.6667C97.8935 42.6667 90.6667 49.8936 90.6667 58.6667C90.6667 67.4399 97.8935 74.6667 106.667 74.6667L106.667 96.0001L74.6666 96.0001L74.6666 106.667C74.6666 109.68 72.3468 112 69.3333 112Z" fill="#94805F"/>
</svg>
