<svg width="175" height="48" viewBox="0 0 175 48" fill="none" xmlns="http://www.w3.org/2000/svg">
<g clip-path="url(#clip0)">
<path d="M33.734 20.2728H19.016C18.6364 20.2728 18.3282 20.5813 18.3282 20.961V28.157C18.3282 28.5366 18.6364 28.8455 19.016 28.8455H24.7576V37.7859C24.7576 37.7859 23.4683 38.2254 19.9041 38.2254C15.6991 38.2254 9.82477 36.6889 9.82477 23.7718C9.82477 10.8518 15.9416 9.15189 21.6842 9.15189C26.6551 9.15189 28.7967 10.0272 30.1592 10.4488C30.5874 10.5801 30.9834 10.1537 30.9834 9.77371L32.6253 2.82099C32.6253 2.64338 32.5652 2.42929 32.3624 2.28378C31.8091 1.88917 28.4331 0 19.9041 0C10.0786 0 0 4.18024 0 24.2754C0 44.3714 11.5392 47.366 21.263 47.366C29.3142 47.366 34.1983 43.9253 34.1983 43.9253C34.3996 43.8141 34.4215 43.5329 34.4215 43.4038V20.961C34.4215 20.5813 34.1137 20.2728 33.734 20.2728ZM109.544 2.51536C109.544 2.13243 109.241 1.82352 108.861 1.82352H100.574C100.196 1.82352 99.8877 2.13243 99.8877 2.51536C99.8877 2.51719 99.8899 18.5306 99.8899 18.5306H86.9725V2.51536C86.9725 2.13243 86.6676 1.82352 86.2886 1.82352H78.0018C77.6247 1.82352 77.3173 2.13243 77.3173 2.51536V45.8798C77.3173 46.2624 77.6247 46.5738 78.0018 46.5738H86.2886C86.6676 46.5738 86.9725 46.2624 86.9725 45.8798V27.3313H99.8899C99.8899 27.3313 99.8673 45.8783 99.8673 45.8798C99.8673 46.2624 100.175 46.5738 100.554 46.5738H108.861C109.24 46.5738 109.544 46.2624 109.544 45.8798V2.51536ZM49.3456 8.31307C49.3456 5.32906 46.9531 2.91763 44.0016 2.91763C41.0529 2.91763 38.6586 5.32906 38.6586 8.31307C38.6586 11.2938 41.0529 13.7118 44.0016 13.7118C46.9531 13.7118 49.3456 11.2938 49.3456 8.31307ZM48.688 36.7549V16.7377C48.688 16.3577 48.3813 16.047 48.0024 16.047H39.7414C39.3625 16.047 39.0233 16.4379 39.0233 16.818V45.4965C39.0233 46.3393 39.5485 46.5899 40.2283 46.5899H47.6712C48.4878 46.5899 48.688 46.189 48.688 45.483V36.7549ZM141.217 16.047H132.994C132.617 16.047 132.31 16.3577 132.31 16.7403V38.0033C132.31 38.0033 130.221 39.5317 127.255 39.5317C124.29 39.5317 123.503 38.1863 123.503 35.2829V16.7403C123.503 16.3577 123.197 16.047 122.819 16.047H114.473C114.096 16.047 113.788 16.3577 113.788 16.7403V36.687C113.788 45.3108 118.594 47.4207 125.206 47.4207C130.63 47.4207 135.004 44.4239 135.004 44.4239C135.004 44.4239 135.212 46.003 135.306 46.1905C135.401 46.3772 135.646 46.5658 135.911 46.5658L141.221 46.5424C141.598 46.5424 141.906 46.231 141.906 45.8502L141.904 16.7403C141.904 16.3577 141.596 16.047 141.217 16.047ZM160.165 39.5482C157.313 39.4614 155.378 38.167 155.378 38.167V24.4344C155.378 24.4344 157.287 23.2645 159.628 23.0551C162.59 22.79 165.443 23.6846 165.443 30.7489C165.443 38.1984 164.156 39.6685 160.165 39.5482ZM163.409 15.1155C158.738 15.1155 155.561 17.1994 155.561 17.1994V2.51536C155.561 2.13243 155.255 1.82352 154.877 1.82352H146.567C146.189 1.82352 145.882 2.13243 145.882 2.51536V45.8798C145.882 46.2624 146.189 46.5738 146.568 46.5738H152.334C152.593 46.5738 152.79 46.44 152.935 46.2055C153.078 45.9724 153.285 44.2062 153.285 44.2062C153.285 44.2062 156.683 47.4265 163.116 47.4265C170.669 47.4265 175 43.5956 175 30.2289C175 16.8621 168.083 15.1155 163.409 15.1155ZM72.5393 15.9726H66.3229C66.3229 15.9726 66.3134 7.762 66.3134 7.76017C66.3134 7.44945 66.1533 7.29408 65.7941 7.29408H57.3227C56.9934 7.29408 56.8165 7.43887 56.8165 7.75543V16.2421C56.8165 16.2421 52.5714 17.2669 52.2844 17.3497C51.9984 17.4325 51.788 17.6962 51.788 18.0105V23.3436C51.788 23.7273 52.0943 24.0366 52.4733 24.0366H56.8165V36.8661C56.8165 46.3955 63.5008 47.3317 68.0115 47.3317C70.0724 47.3317 72.5378 46.6697 72.9448 46.5195C73.191 46.429 73.334 46.1741 73.334 45.8977L73.3409 40.031C73.3409 39.6484 73.0178 39.3388 72.6538 39.3388C72.2917 39.3388 71.3649 39.4862 70.4109 39.4862C67.3576 39.4862 66.3229 38.0664 66.3229 36.2286C66.3229 34.3923 66.3225 24.0366 66.3225 24.0366H72.5393C72.9182 24.0366 73.2249 23.7273 73.2249 23.3436V16.6637C73.2249 16.2811 72.9182 15.9726 72.5393 15.9726Z" fill="#11110F"/>
</g>
<defs>
<clipPath id="clip0">
<rect width="175" height="47.5098" fill="white"/>
</clipPath>
</defs>
</svg>
