<svg width="176" height="172" viewBox="0 0 176 172" fill="none" xmlns="http://www.w3.org/2000/svg">
<g clip-path="url(#clip0)">
<path d="M87.9345 0.981628C39.6155 0.981628 0.433777 40.1561 0.433777 88.4823C0.433777 127.142 25.5054 159.941 60.2721 171.512C64.6451 172.322 66.2506 169.613 66.2506 167.302C66.2506 165.216 66.1694 158.323 66.1318 151.011C41.789 156.305 36.6524 140.687 36.6524 140.687C32.672 130.574 26.937 127.884 26.937 127.884C18.998 122.454 27.5354 122.565 27.5354 122.565C36.322 123.182 40.9486 131.582 40.9486 131.582C48.7528 144.959 61.4183 141.092 66.4114 138.856C67.1968 133.201 69.4644 129.341 71.9668 127.156C52.5317 124.943 32.1011 117.44 32.1011 83.9123C32.1011 74.3592 35.5193 66.5536 41.1167 60.4258C40.2082 58.222 37.2131 49.3223 41.9643 37.2698C41.9643 37.2698 49.3121 34.9181 66.0332 46.2389C73.013 44.3002 80.4984 43.3279 87.9345 43.2946C95.3706 43.3279 102.862 44.3002 109.855 46.2389C126.555 34.9181 133.893 37.2698 133.893 37.2698C138.656 49.3223 135.659 58.222 134.751 60.4258C140.361 66.5536 143.756 74.3592 143.756 83.9123C143.756 117.52 123.287 124.92 103.802 127.086C106.941 129.801 109.737 135.126 109.737 143.29C109.737 154.998 109.636 164.42 109.636 167.302C109.636 169.631 111.211 172.359 115.646 171.5C150.394 159.917 175.434 127.129 175.434 88.4823C175.434 40.1561 136.258 0.981628 87.9345 0.981628ZM33.2056 125.628C33.0129 126.063 32.329 126.193 31.706 125.895C31.0713 125.609 30.7149 125.017 30.9206 124.581C31.109 124.133 31.7943 124.008 32.4275 124.308C33.0636 124.594 33.4259 125.192 33.2056 125.628ZM37.5097 129.469C37.0924 129.856 36.2766 129.676 35.7231 129.064C35.1508 128.454 35.0436 127.639 35.4667 127.246C35.897 126.859 36.6881 127.04 37.2619 127.65C37.8343 128.268 37.9458 129.077 37.5097 129.469ZM40.4625 134.382C39.9263 134.755 39.0497 134.406 38.5078 133.628C37.9717 132.849 37.9717 131.916 38.5194 131.542C39.0627 131.169 39.9263 131.505 40.4755 132.277C41.0102 133.068 41.0102 134.001 40.4625 134.382ZM45.4562 140.073C44.9766 140.602 43.9551 140.46 43.2074 139.739C42.4423 139.033 42.2293 138.032 42.7104 137.503C43.1958 136.972 44.2231 137.122 44.9766 137.837C45.7358 138.542 45.9677 139.55 45.4562 140.073ZM51.9101 141.994C51.6986 142.68 50.7147 142.991 49.7236 142.7C48.734 142.4 48.0863 141.597 48.2862 140.905C48.492 140.215 49.4802 139.89 50.4785 140.202C51.4667 140.501 52.1159 141.297 51.9101 141.994ZM59.2549 142.809C59.2796 143.531 58.4392 144.129 57.3988 144.142C56.3526 144.166 55.5064 143.582 55.4948 142.872C55.4948 142.143 56.3164 141.55 57.3626 141.533C58.4029 141.512 59.2549 142.092 59.2549 142.809ZM66.4704 142.533C66.595 143.237 65.872 143.96 64.8389 144.153C63.8231 144.338 62.8827 143.903 62.7538 143.205C62.6277 142.483 63.3638 141.76 64.3781 141.573C65.4126 141.394 66.3385 141.817 66.4704 142.533Z" fill="#161614"/>
</g>
<defs>
<clipPath id="clip0">
<rect width="175" height="170.898" fill="white" transform="translate(0.433777 0.981628)"/>
</clipPath>
</defs>
</svg>
