<svg width="60" height="60" viewBox="0 0 60 60" fill="none" xmlns="http://www.w3.org/2000/svg">
<path d="M0 28.75C0 15.1971 0 8.42068 4.21034 4.21034C8.42068 0 15.1971 0 28.75 0H31.25C44.8029 0 51.5794 0 55.7896 4.21034C60 8.42068 60 15.1971 60 28.75V31.25C60 44.8029 60 51.5794 55.7896 55.7896C51.5794 60 44.8029 60 31.25 60H28.75C15.1971 60 8.42068 60 4.21034 55.7896C0 51.5794 0 44.8029 0 31.25L0 28.75Z" fill="#2787F5"/>
<path fill-rule="evenodd" clip-rule="evenodd" d="M17.2887 19H13.3503C12.2251 19 12 19.5204 12 20.094C12 21.1187 13.3352 26.2006 18.217 32.9218C21.4715 37.5118 26.0568 40 30.2293 40C32.7327 40 33.0424 39.4474 33.0424 38.4955V35.0263C33.0424 33.9211 33.2796 33.7004 34.0723 33.7004C34.6565 33.7004 35.6578 33.9874 37.9945 36.2004C40.6649 38.8233 41.1051 40 42.6071 40H46.5455C47.6708 40 48.2334 39.4474 47.9089 38.3568C47.5537 37.2699 46.2787 35.6928 44.587 33.8235C43.669 32.7579 42.2921 31.6104 41.8748 31.0365C41.2907 30.2989 41.4575 29.971 41.8748 29.3153C41.8748 29.3153 46.6731 22.676 47.1739 20.422C47.4242 19.6023 47.1739 19 45.9829 19H42.0445C41.0431 19 40.5814 19.5204 40.331 20.094C40.331 20.094 38.3282 24.8891 35.491 28.0038C34.573 28.9054 34.1557 29.1923 33.655 29.1923C33.4047 29.1923 33.0423 28.9054 33.0423 28.0858V20.422C33.0423 19.4383 32.7517 19 31.9171 19H25.7281C25.1024 19 24.726 19.4565 24.726 19.8892C24.726 20.8216 26.1446 21.0367 26.2909 23.6596V29.3563C26.2909 30.6053 26.0611 30.8317 25.5605 30.8317C24.2254 30.8317 20.9776 26.0152 19.0514 20.5039C18.6739 19.4327 18.2953 19 17.2887 19Z" fill="white"/>
</svg>
