<svg width="128" height="128" viewBox="0 0 128 128" fill="none" xmlns="http://www.w3.org/2000/svg">
<path d="M51.5521 10.6666L48.9375 24.125C44.5419 25.7826 40.5055 28.1063 36.9687 31.0104L24.0416 26.552L11.5833 48.1145L21.9375 57.1145C21.5394 59.5584 21.3333 61.8231 21.3333 64C21.3333 66.1801 21.5456 68.4406 21.9375 70.8854V70.8958L11.5833 79.8958L24.0416 101.448L36.9583 97C40.4954 99.9057 44.541 102.216 48.9375 103.875L51.5521 117.333H76.4479L79.0625 103.875C83.4609 102.216 87.4928 99.8963 91.0312 96.9895L103.958 101.448L116.406 79.8958L106.062 70.8854C106.461 68.4415 106.667 66.1768 106.667 64C106.667 61.8264 106.459 59.5646 106.062 57.125V57.1145L116.417 48.1041L103.958 26.552L91.0416 31C87.5045 28.0943 83.459 25.7836 79.0625 24.125L76.4479 10.6666H51.5521ZM60.3437 21.3333H67.6562L69.7291 32L75.2916 34.1041C78.6445 35.3678 81.6569 37.1027 84.2708 39.25L88.875 43.0208L99.125 39.5L102.781 45.8229L94.5937 52.9479L95.5312 58.8125V58.8229C95.8574 60.8225 96 62.5001 96 64C96 65.4999 95.8574 67.1771 95.5312 69.177L94.5833 75.0416L102.771 82.1666L99.1146 88.5L88.875 84.9687L84.2604 88.75C81.6465 90.8973 78.6445 92.6321 75.2916 93.8958H75.2812L69.7187 96L67.6458 106.667H60.3437L58.2708 96L52.7083 93.8958C49.3554 92.6321 46.3431 90.8973 43.7291 88.75L39.125 84.9791L28.875 88.5L25.2187 82.177L33.4166 75.0416L32.4687 69.1979V69.1875C32.1473 67.1791 32 65.4969 32 64C32 62.5001 32.1426 60.8228 32.4687 58.8229L33.4166 52.9583L25.2187 45.8333L28.875 39.5L39.125 43.0312L43.7291 39.25C46.3431 37.1027 49.3554 35.3678 52.7083 34.1041L58.2708 32L60.3437 21.3333ZM64 42.6666C52.2852 42.6666 42.6666 52.2852 42.6666 64C42.6666 75.7148 52.2852 85.3333 64 85.3333C75.7148 85.3333 85.3333 75.7148 85.3333 64C85.3333 52.2852 75.7148 42.6666 64 42.6666ZM64 53.3333C69.9279 53.3333 74.6666 58.0721 74.6666 64C74.6666 69.9278 69.9279 74.6666 64 74.6666C58.0721 74.6666 53.3333 69.9278 53.3333 64C53.3333 58.0721 58.0721 53.3333 64 53.3333Z" fill="#585858"/>
</svg>
